# xmcd
#
# Track frame offsets:
#	150
#	19977
#	39427
#
# Disc length: 707 seconds
#
# Revision: 1
# Processed by: cddbd v1.5.2PL0 Copyright (c) Steve Scherf et al.
# Submitted via: EasyCDDAExtractor 11.9.9.666
#
DISCID=1c02c103
DTITLE=Maria McKee - Absolutely Barking Stars
DYEAR=1996
DGENRE=Country
TTITLE0=absolutely barking stars
TTITLE1=Ribbons
TTITLE2=Her I Shred
EXTD=
EXTT0=
EXTT1=
EXTT2=
PLAYORDER=
